<svg xmlns="http://www.w3.org/2000/svg" xmlns:xlink="http://www.w3.org/1999/xlink" width="460" zoomAndPan="magnify" viewBox="0 0 345 74.999997" height="100" preserveAspectRatio="xMidYMid meet" version="1.0"><defs><g/></defs><g fill="#ffffff" fill-opacity="1"><g transform="translate(9.720709, 62.747182)"><g><path d="M 51.851562 -9.550781 C 54.15625 -8.707031 53.703125 -5.675781 50.503906 -0.5625 L 49.546875 0.84375 C 49.097656 1.574219 48.875 1.964844 48.875 2.023438 C 48.144531 2.695312 47.414062 3.539062 46.625 4.550781 C 45.671875 5.953125 44.605469 6.628906 43.480469 6.515625 C 43.03125 6.066406 42.75 5.84375 42.582031 5.84375 C 41.289062 5.84375 40.390625 5.503906 39.886719 4.773438 L 36.964844 4.773438 C 35.726562 5.503906 35 5.503906 34.71875 4.773438 C 35 4.042969 35.617188 3.59375 36.457031 3.3125 L 37.1875 3.035156 C 37.46875 2.976562 37.636719 2.863281 37.863281 2.808594 C 37.976562 2.753906 38.144531 2.695312 38.199219 2.640625 C 38.3125 2.472656 38.480469 1.964844 38.648438 1.125 C 38.929688 0.167969 39.042969 -0.394531 39.097656 -0.5625 C 38.929688 -0.5625 38.875 -0.617188 38.875 -0.675781 C 38.875 -0.730469 38.816406 -0.785156 38.648438 -0.785156 L 39.097656 -0.785156 C 39.265625 -1.628906 39.4375 -2.191406 39.546875 -2.472656 C 40.054688 -3.707031 40.222656 -4.550781 39.996094 -5.054688 C 40.445312 -6.066406 40.445312 -7.132812 39.996094 -8.257812 C 39.546875 -9.4375 38.816406 -10.113281 37.75 -10.167969 L 27.917969 -11.066406 C 27.46875 -10.898438 26.570312 -10.898438 25.222656 -10.953125 C 24.042969 -11.011719 23.144531 -10.898438 22.527344 -10.617188 L 22.300781 -10.730469 L 22.078125 -10.84375 C 22.078125 -10.671875 22.019531 -10.5625 21.851562 -10.394531 L 21.628906 -10 C 21.628906 -9.324219 21.570312 -8.761719 21.402344 -8.257812 C 21.234375 -7.582031 20.953125 -6.964844 20.617188 -6.347656 L 19.832031 -4.832031 L 19.941406 -4.605469 L 20.054688 -4.4375 C 21.910156 -4.15625 23.144531 -4.042969 23.652344 -4.214844 C 23.199219 -6.066406 23.652344 -6.964844 25 -6.964844 C 25.558594 -6.683594 26.066406 -6.574219 26.570312 -6.574219 C 26.570312 -6.292969 26.796875 -6.125 27.246094 -6.125 C 27.246094 -5.84375 27.46875 -5.675781 27.917969 -5.503906 L 28.59375 -4.214844 C 29.097656 -3.3125 29.15625 -2.585938 28.820312 -2.078125 C 29.097656 -1.574219 29.269531 -0.675781 29.269531 0.730469 C 29.097656 0.898438 29.097656 1.066406 29.15625 1.234375 C 29.210938 1.40625 29.269531 1.574219 29.269531 1.796875 C 29.269531 2.585938 28.820312 3.3125 27.917969 3.933594 C 27.414062 3.652344 26.796875 3.59375 26.121094 3.707031 C 25.953125 3.707031 25.730469 3.765625 25.558594 3.933594 C 25.28125 4.15625 25.054688 4.324219 25 4.382812 C 24.660156 4.042969 24.378906 3.539062 24.101562 2.863281 C 23.820312 2.132812 23.59375 1.628906 23.425781 1.347656 C 23.425781 0.675781 23.257812 0.167969 22.976562 -0.113281 C 22.359375 0 21.570312 0 20.617188 -0.113281 C 19.605469 -0.28125 18.820312 -0.226562 18.257812 0.0546875 C 17.359375 -0.226562 16.742188 -0.335938 16.460938 -0.335938 L 13.761719 -0.226562 C 11.964844 -0.167969 10.671875 0 9.886719 0.28125 C 9.4375 0.167969 8.484375 0.167969 6.964844 0.28125 C 5.449219 0.449219 4.550781 0.226562 4.269531 -0.335938 C 4.042969 -0.335938 3.425781 -0.503906 2.472656 -0.785156 C 2.023438 -2.527344 1.855469 -4.101562 2.023438 -5.503906 C 3.035156 -8.035156 3.765625 -9.71875 4.269531 -10.617188 C 4.269531 -11.347656 4.492188 -11.910156 4.945312 -12.359375 L 6.066406 -12.359375 C 6.234375 -12.359375 6.292969 -12.191406 6.292969 -11.910156 C 6.460938 -11.742188 6.683594 -11.683594 7.078125 -11.683594 C 7.472656 -11.683594 7.753906 -11.628906 7.863281 -11.460938 C 7.863281 -11.121094 7.921875 -10.898438 8.089844 -10.84375 C 8.539062 -10.617188 8.761719 -10.449219 8.761719 -10.394531 C 9.382812 -8.539062 9.492188 -7.472656 9.214844 -7.191406 C 8.933594 -6.910156 8.484375 -6.125 7.863281 -4.832031 L 7.976562 -4.605469 L 8.089844 -4.4375 C 8.371094 -4.269531 8.761719 -4.214844 9.214844 -4.214844 C 9.71875 -4.214844 10 -4.15625 10.113281 -3.988281 C 10.28125 -4.15625 10.5625 -4.214844 11.011719 -4.214844 C 11.179688 -4.214844 11.292969 -4.15625 11.460938 -4.101562 L 11.683594 -3.988281 C 12.023438 -4.15625 12.191406 -4.324219 12.246094 -4.605469 C 12.359375 -4.886719 12.359375 -5.28125 12.246094 -5.675781 C 12.246094 -5.84375 12.246094 -5.953125 12.246094 -6.125 C 12.191406 -6.292969 12.191406 -6.402344 12.132812 -6.460938 L 12.132812 -6.574219 L 12.359375 -6.964844 L 12.582031 -7.414062 L 12.359375 -7.640625 C 13.3125 -9.941406 13.761719 -11.683594 13.761719 -12.753906 L 10.5625 -16.851562 C 10.5625 -18.425781 10.167969 -19.550781 9.4375 -20.28125 C 9.4375 -20.449219 9.492188 -20.671875 9.664062 -20.898438 C 8.933594 -21.628906 8.761719 -22.132812 9.214844 -22.414062 C 9.214844 -23.820312 9.15625 -24.660156 8.988281 -24.941406 C 9.269531 -25.222656 9.4375 -25.449219 9.4375 -25.617188 C 9.4375 -28.539062 10.167969 -33.539062 11.683594 -40.558594 C 11.742188 -40.839844 11.742188 -41.457031 11.683594 -42.527344 C 11.628906 -43.59375 11.515625 -44.210938 11.460938 -44.4375 C 11.628906 -44.605469 11.851562 -44.714844 12.246094 -44.773438 C 12.640625 -44.828125 12.921875 -44.996094 13.03125 -45.277344 L 16.683594 -52.132812 C 17.695312 -53.085938 18.371094 -53.703125 18.707031 -53.875 C 18.707031 -54.15625 18.761719 -54.378906 18.929688 -54.492188 C 19.210938 -54.773438 20 -54.546875 21.402344 -53.875 C 21.402344 -53.535156 21.570312 -53.085938 21.964844 -52.46875 C 22.359375 -51.851562 22.359375 -51.34375 22.078125 -50.839844 C 22.976562 -49.996094 22.976562 -48.929688 22.078125 -47.636719 C 21.796875 -47.636719 21.570312 -47.582031 21.402344 -47.414062 C 20.449219 -46.570312 19.773438 -46.066406 19.382812 -45.953125 L 19.492188 -45.726562 L 19.605469 -45.503906 C 24.492188 -45.953125 29.042969 -45.617188 33.367188 -44.4375 C 33.648438 -44.15625 33.988281 -43.875 34.492188 -43.59375 C 35.222656 -43.144531 36.007812 -41.851562 36.964844 -39.71875 C 37.246094 -39.71875 37.414062 -39.660156 37.414062 -39.492188 C 37.414062 -39.378906 37.636719 -38.648438 38.085938 -37.246094 C 38.480469 -36.007812 38.816406 -35.222656 38.988281 -34.828125 C 39.097656 -34.546875 39.378906 -33.089844 39.886719 -30.503906 C 39.15625 -29.378906 38.480469 -28.875 37.863281 -29.042969 C 37.46875 -28.761719 37.246094 -28.59375 37.1875 -28.59375 C 35.503906 -28.59375 34.546875 -28.539062 34.269531 -28.371094 L 34.042969 -28.480469 L 33.820312 -28.59375 C 33.648438 -28.3125 33.257812 -28.199219 32.582031 -28.257812 C 32.078125 -28.3125 31.628906 -28.3125 31.289062 -28.199219 C 30.898438 -28.03125 29.828125 -27.808594 28.144531 -27.527344 C 27.414062 -27.414062 26.347656 -27.132812 25 -26.683594 C 24.71875 -26.796875 24.15625 -26.796875 23.425781 -26.683594 C 22.808594 -26.515625 22.246094 -26.460938 21.851562 -26.460938 C 21.570312 -26.460938 21.402344 -26.289062 21.402344 -26.011719 L 19.15625 -26.011719 C 18.761719 -26.011719 18.089844 -25.785156 17.023438 -25.390625 L 14.886719 -24.550781 C 14.886719 -24.101562 14.941406 -23.820312 15.113281 -23.652344 C 15.222656 -23.539062 15.898438 -23.480469 17.132812 -23.480469 C 17.246094 -23.480469 17.808594 -23.59375 18.761719 -23.707031 L 21.515625 -24.210938 C 24.378906 -24.660156 26.066406 -24.886719 26.570312 -24.941406 L 27.132812 -25.167969 C 27.46875 -25.335938 27.640625 -25.449219 27.695312 -25.390625 C 27.976562 -25.222656 28.199219 -25.167969 28.371094 -25.167969 C 29.15625 -25.335938 30.222656 -25.390625 31.515625 -25.390625 C 33.089844 -25.390625 34.15625 -25.449219 34.71875 -25.617188 C 34.828125 -25.449219 35.109375 -25.390625 35.617188 -25.390625 L 35.839844 -25.617188 C 35.839844 -25.449219 35.953125 -25.390625 36.234375 -25.390625 C 36.402344 -25.390625 36.570312 -25.222656 36.738281 -24.941406 C 37.132812 -25.109375 37.527344 -25.054688 37.863281 -24.832031 C 38.199219 -24.660156 38.480469 -24.324219 38.761719 -23.875 C 39.042969 -23.539062 39.324219 -23.257812 39.660156 -23.03125 C 39.660156 -22.191406 39.828125 -21.628906 40.109375 -21.347656 C 38.929688 -21.347656 38.3125 -20.839844 38.3125 -19.832031 C 38.03125 -19.550781 37.695312 -19.550781 37.414062 -19.832031 C 36.347656 -19.550781 35.449219 -19.660156 34.71875 -20.28125 C 33.648438 -19.832031 32.640625 -19.941406 31.796875 -20.671875 C 29.042969 -20.953125 24.269531 -20.449219 17.359375 -19.15625 C 16.742188 -19.042969 16.347656 -18.707031 16.234375 -18.089844 L 17.582031 -17.472656 C 17.582031 -17.640625 17.75 -17.695312 18.03125 -17.695312 C 18.480469 -17.414062 19.4375 -17.300781 20.953125 -17.359375 C 22.582031 -17.414062 23.707031 -17.414062 24.324219 -17.246094 L 24.550781 -17.472656 C 31.570312 -17.191406 36.007812 -16.796875 37.863281 -16.402344 L 38.085938 -16.628906 C 40.726562 -16.011719 42.636719 -15.617188 43.707031 -15.5625 C 44.097656 -15.222656 44.492188 -15.054688 44.941406 -15 C 45.503906 -14.941406 45.839844 -14.832031 45.953125 -14.664062 C 45.953125 -14.382812 46.175781 -14.269531 46.625 -14.269531 C 47.246094 -13.761719 47.695312 -13.371094 47.976562 -13.203125 C 48.648438 -12.695312 49.15625 -12.300781 49.433594 -12.023438 C 49.828125 -11.683594 50.109375 -11.234375 50.277344 -10.617188 C 50.558594 -10.167969 51.066406 -9.832031 51.851562 -9.550781 Z M 17.582031 -38.425781 C 17.582031 -38.3125 17.527344 -37.917969 17.359375 -37.246094 C 17.191406 -36.851562 17.132812 -36.457031 17.132812 -36.066406 C 18.761719 -36.234375 20.617188 -36.570312 22.75 -36.964844 C 25.167969 -37.359375 26.964844 -37.636719 28.144531 -37.808594 C 28.707031 -37.808594 29.324219 -37.863281 30.054688 -38.03125 C 31.179688 -38.199219 31.851562 -38.257812 32.019531 -38.257812 L 32.019531 -38.648438 C 31.683594 -39.097656 31.007812 -39.4375 29.941406 -39.71875 C 29.828125 -39.71875 29.605469 -39.71875 29.324219 -39.773438 C 29.042969 -39.773438 28.59375 -39.773438 28.089844 -39.773438 C 27.527344 -39.828125 26.964844 -39.828125 26.460938 -39.828125 C 24.492188 -39.886719 23.371094 -39.773438 22.976562 -39.492188 C 22.359375 -39.492188 20.839844 -39.378906 18.480469 -39.097656 C 18.03125 -38.648438 17.75 -38.425781 17.582031 -38.425781 Z M 16.460938 -32.246094 L 15.785156 -30.335938 C 17.078125 -30.335938 19.15625 -30.617188 21.964844 -31.179688 C 24.71875 -31.738281 26.683594 -32.019531 27.917969 -32.019531 C 28.761719 -32.414062 30.898438 -32.808594 34.269531 -33.089844 C 34.097656 -33.257812 34.042969 -33.480469 34.042969 -33.820312 C 34.042969 -34.097656 33.988281 -34.378906 33.820312 -34.605469 C 33.539062 -34.605469 33.3125 -34.660156 33.144531 -34.71875 C 32.863281 -34.773438 32.640625 -34.828125 32.46875 -35 C 32.1875 -35 32.019531 -34.941406 32.019531 -34.828125 C 31.683594 -34.941406 30.785156 -35 29.269531 -35 C 21.179688 -33.367188 16.910156 -32.46875 16.460938 -32.246094 Z M 16.460938 -32.246094 "/></g></g></g><g fill="#ffffff" fill-opacity="1"><g transform="translate(64.147111, 62.747182)"><g><path d="M 6.234375 2.246094 C 6.964844 2.246094 7.472656 2.359375 7.640625 2.527344 L 7.921875 2.246094 C 8.3125 2.585938 8.820312 2.414062 9.4375 1.683594 C 10.503906 0.503906 11.011719 -0.503906 11.011719 -1.40625 C 11.011719 -1.628906 10.730469 -2.640625 10.167969 -4.492188 L 10.730469 -5.054688 L 10.449219 -5.335938 C 10.28125 -5.503906 10.28125 -5.617188 10.5625 -5.617188 C 10.785156 -5.617188 10.84375 -5.730469 10.730469 -5.898438 C 10.335938 -6.402344 10.167969 -6.796875 10.167969 -7.023438 C 10.730469 -7.582031 10.730469 -8.144531 10.167969 -8.707031 C 13.203125 -11.347656 16.292969 -12.527344 19.4375 -12.359375 C 21.347656 -11.402344 22.359375 -10.617188 22.527344 -10.113281 C 22.359375 -9.941406 22.527344 -9.382812 23.089844 -8.425781 C 23.089844 -7.246094 23.652344 -5.503906 24.773438 -3.089844 C 24.886719 -2.921875 25.054688 -2.808594 25.335938 -2.808594 C 25.503906 -2.078125 27.300781 -0.730469 30.671875 1.125 C 31.289062 0.953125 31.851562 0.898438 32.359375 1.011719 C 32.917969 1.066406 33.480469 1.066406 34.042969 1.011719 C 34.660156 0.898438 35 0.5625 35.167969 0 C 35.277344 0.113281 35.617188 0.113281 36.179688 0 C 36.347656 -0.0546875 36.515625 -0.113281 36.683594 -0.113281 C 36.851562 -0.167969 36.964844 -0.226562 37.019531 -0.226562 L 37.132812 -0.28125 C 41.628906 -4.042969 43.988281 -6.011719 44.15625 -6.179688 C 44.546875 -7.191406 44.492188 -7.753906 43.875 -7.863281 C 43.425781 -7.921875 42.582031 -7.640625 41.347656 -7.023438 C 40.222656 -6.460938 39.378906 -6.179688 38.816406 -6.179688 C 37.1875 -4.945312 35.839844 -4.101562 34.71875 -3.707031 C 34.660156 -3.707031 33.3125 -3.875 30.671875 -4.214844 C 30.503906 -4.382812 30.109375 -4.492188 29.550781 -4.492188 C 29.378906 -4.664062 29.269531 -4.945312 29.269531 -5.335938 C 29.210938 -5.335938 29.097656 -5.394531 28.988281 -5.503906 C 28.929688 -5.503906 28.875 -5.5625 28.707031 -5.617188 C 28.257812 -6.011719 28.257812 -6.683594 28.707031 -7.582031 C 28.199219 -9.4375 27.863281 -10.671875 27.582031 -11.234375 L 27.582031 -13.203125 C 27.132812 -14.382812 26.851562 -15.054688 26.738281 -15.167969 L 25.617188 -16.292969 C 25.222656 -16.910156 24.832031 -17.246094 24.492188 -17.414062 C 23.929688 -17.414062 23.652344 -17.582031 23.652344 -17.976562 C 22.132812 -19.042969 20.839844 -19.605469 19.71875 -19.660156 C 19.660156 -19.71875 18.59375 -19.492188 16.628906 -19.101562 C 13.480469 -18.425781 11.796875 -17.863281 11.574219 -17.414062 C 11.121094 -17.808594 11.011719 -18.203125 11.179688 -18.539062 C 11.742188 -19.773438 12.078125 -20.503906 12.132812 -20.785156 C 12.695312 -22.46875 13.144531 -23.707031 13.425781 -24.492188 C 13.707031 -25.222656 13.933594 -25.617188 14.101562 -25.558594 C 14.492188 -25.953125 14.71875 -26.796875 14.832031 -28.199219 C 14.886719 -29.605469 15.28125 -30.503906 16.066406 -30.898438 C 16.066406 -31.910156 16.179688 -32.46875 16.347656 -32.582031 L 16.628906 -32.695312 C 16.628906 -32.808594 16.742188 -32.863281 16.910156 -32.863281 C 17.472656 -33.875 17.921875 -35.167969 18.3125 -36.796875 C 18.480469 -37.636719 18.761719 -38.929688 19.15625 -40.726562 C 19.210938 -42.078125 18.707031 -43.085938 17.75 -43.816406 C 15.335938 -42.863281 13.820312 -42.132812 13.257812 -41.570312 C 9.832031 -36.964844 7.527344 -33.480469 6.234375 -31.179688 C 6.066406 -30.167969 5.617188 -28.648438 4.832031 -26.683594 C 4.4375 -24.324219 4.042969 -22.808594 3.707031 -22.191406 L 3.988281 -21.910156 C 3.820312 -21.910156 3.707031 -21.683594 3.707031 -21.234375 C 3.707031 -21.179688 3.59375 -20.953125 3.425781 -20.503906 C 3.371094 -20.335938 3.089844 -16.628906 2.585938 -9.269531 L 2.585938 -6.742188 C 2.585938 -1.855469 3.820312 1.125 6.234375 2.246094 Z M 6.234375 2.246094 "/></g></g></g><g fill="#ffffff" fill-opacity="1"><g transform="translate(109.867536, 62.747182)"><g><path d="M 43.875 -13.539062 L 43.761719 -14.042969 L 43.59375 -14.550781 C 43.425781 -14.550781 43.367188 -14.605469 43.367188 -14.664062 C 43.367188 -14.773438 43.257812 -14.832031 43.085938 -14.832031 C 42.078125 -16.179688 41.289062 -16.964844 40.785156 -17.132812 C 39.378906 -19.210938 37.695312 -20.5625 35.617188 -21.234375 L 35.390625 -21.796875 C 33.480469 -22.921875 30.898438 -24.042969 27.640625 -25.222656 L 21.179688 -27.695312 C 20.953125 -28.199219 20.730469 -28.480469 20.449219 -28.480469 C 20.449219 -28.988281 20.503906 -29.324219 20.671875 -29.492188 L 20.953125 -29.378906 L 21.179688 -29.269531 L 20.953125 -29.378906 L 20.671875 -29.492188 C 20.671875 -31.007812 21.628906 -33.367188 23.539062 -36.457031 C 23.199219 -39.324219 22.359375 -41.738281 20.953125 -43.648438 C 20.953125 -44.097656 20.839844 -44.773438 20.671875 -45.726562 C 20.503906 -46.457031 20.449219 -47.074219 20.449219 -47.527344 L 19.660156 -48.3125 C 19.832031 -48.707031 19.832031 -48.929688 19.605469 -49.097656 C 19.4375 -49.378906 19.382812 -49.660156 19.382812 -49.886719 L 19.15625 -49.605469 C 18.652344 -49.886719 18.371094 -50.109375 18.371094 -50.390625 C 17.132812 -50.558594 15.953125 -50.222656 14.773438 -49.324219 L 14.773438 -48.816406 L 13.875 -47.917969 C 13.425781 -47.46875 13.144531 -47.074219 12.976562 -46.738281 L 12.976562 -46.007812 C 12.582031 -45.839844 12.300781 -45.503906 12.023438 -44.941406 C 11.796875 -44.4375 11.574219 -44.097656 11.402344 -43.929688 C 9.4375 -39.605469 8.425781 -37.359375 8.3125 -37.246094 L 8.425781 -36.964844 L 8.59375 -36.738281 C 3.425781 -22.019531 1.292969 -10.503906 2.132812 -2.191406 C 3.089844 -0.898438 3.59375 -0.167969 3.652344 -0.113281 L 6.234375 -0.113281 C 6.234375 -0.449219 6.347656 -0.730469 6.515625 -0.898438 C 6.683594 -1.066406 7.132812 -1.179688 7.808594 -1.179688 C 7.976562 -1.347656 8.035156 -1.574219 8.035156 -1.910156 C 8.484375 -2.078125 8.988281 -2.304688 9.492188 -2.695312 C 9.886719 -3.035156 10.222656 -3.425781 10.503906 -3.875 L 11.402344 -5.394531 C 11.515625 -5.5625 11.683594 -5.84375 11.796875 -6.179688 C 12.023438 -6.460938 12.132812 -6.683594 12.191406 -6.796875 C 12.472656 -7.640625 12.695312 -8.371094 12.976562 -8.988281 L 13.707031 -11.179688 C 14.324219 -11.851562 14.71875 -12.472656 15 -13.03125 C 15.113281 -13.3125 15.28125 -13.707031 15.5625 -14.269531 C 15.84375 -14.832031 16.011719 -15.167969 16.066406 -15.335938 C 16.347656 -16.066406 16.628906 -16.742188 16.796875 -17.414062 C 16.964844 -17.414062 17.078125 -17.472656 17.078125 -17.527344 C 17.078125 -17.582031 17.191406 -17.640625 17.359375 -17.640625 C 19.382812 -16.964844 21.011719 -16.628906 22.246094 -16.628906 C 22.246094 -16.292969 22.414062 -16.011719 22.808594 -15.785156 C 23.3125 -15.503906 23.539062 -15.28125 23.539062 -15.054688 C 28.761719 -12.582031 32.46875 -10.335938 34.605469 -8.371094 C 35.109375 -7.191406 36.179688 -6.402344 37.695312 -6.066406 L 37.917969 -6.292969 C 38.085938 -6.292969 38.3125 -6.234375 38.59375 -6.066406 C 38.761719 -5.953125 38.988281 -5.785156 39.210938 -5.5625 C 39.378906 -6.066406 39.996094 -6.292969 41.066406 -6.292969 C 41.234375 -6.460938 41.570312 -6.683594 41.964844 -6.964844 C 42.355469 -7.191406 42.695312 -7.472656 43.085938 -7.753906 C 43.425781 -7.976562 43.707031 -8.203125 43.875 -8.371094 L 43.875 -8.875 C 44.378906 -9.15625 44.660156 -9.4375 44.660156 -9.664062 C 44.660156 -9.71875 44.660156 -9.773438 44.605469 -9.941406 C 44.605469 -10.113281 44.605469 -10.222656 44.605469 -10.335938 C 44.605469 -10.617188 44.546875 -10.785156 44.378906 -10.953125 C 44.546875 -11.121094 44.660156 -11.742188 44.660156 -12.753906 C 44.4375 -12.753906 44.324219 -12.863281 44.265625 -13.144531 C 44.097656 -13.425781 43.988281 -13.539062 43.875 -13.539062 Z M 43.875 -13.539062 "/></g></g></g><g fill="#ffffff" fill-opacity="1"><g transform="translate(156.374307, 62.747182)"><g><path d="M 47.300781 -3.707031 C 47.132812 -3.425781 45.953125 -3.089844 43.816406 -2.640625 C 43.425781 -2.527344 42.300781 -2.132812 40.390625 -1.515625 C 39.886719 -1.347656 38.707031 -1.515625 36.90625 -1.964844 C 36.515625 -2.472656 36.121094 -2.863281 35.617188 -3.144531 C 35.167969 -3.425781 34.773438 -3.707031 34.492188 -3.988281 C 34.097656 -4.4375 33.707031 -5.335938 33.199219 -6.683594 L 32.359375 -8.933594 C 32.527344 -9.324219 32.582031 -9.941406 32.640625 -10.730469 C 32.695312 -11.574219 32.863281 -12.246094 33.144531 -12.695312 C 33.089844 -12.863281 33.03125 -13.257812 33.03125 -13.820312 C 33.03125 -14.324219 32.976562 -14.71875 32.863281 -15 C 32.808594 -15.113281 32.976562 -15.390625 33.425781 -15.84375 C 33.425781 -17.414062 33.761719 -18.371094 34.492188 -18.761719 L 34.492188 -19.324219 C 34.828125 -19.492188 35.558594 -19.773438 36.738281 -20.167969 C 37.976562 -20.617188 38.816406 -21.011719 39.324219 -21.347656 C 39.324219 -22.921875 38.085938 -23.875 35.558594 -24.210938 C 35.167969 -23.707031 34.71875 -22.976562 34.097656 -21.910156 C 33.257812 -20.5625 32.808594 -19.773438 32.640625 -19.605469 L 32.640625 -19.042969 C 31.910156 -17.921875 31.066406 -16.851562 30.222656 -15.84375 C 28.539062 -14.773438 27.75 -13.761719 27.808594 -12.695312 L 27.527344 -12.527344 C 27.414062 -12.472656 27.300781 -12.472656 27.246094 -12.414062 C 26.402344 -10.785156 25.730469 -9.71875 25.109375 -9.214844 L 24.4375 -8.933594 C 24.269531 -8.875 24.042969 -8.761719 23.761719 -8.652344 C 22.976562 -8.257812 22.527344 -7.863281 22.359375 -7.359375 C 22.300781 -7.191406 21.570312 -6.910156 20.222656 -6.402344 L 18.257812 -5.675781 L 16.570312 -5.449219 C 16.402344 -5.394531 16.011719 -5.28125 15.390625 -5.054688 C 14.832031 -4.832031 14.492188 -4.664062 14.4375 -4.605469 C 13.820312 -3.988281 13.03125 -3.875 12.023438 -4.324219 C 11.574219 -4.492188 11.121094 -4.550781 10.671875 -4.605469 C 10.054688 -4.664062 9.550781 -4.773438 9.269531 -4.886719 C 8.875 -5.054688 8.539062 -5.335938 8.257812 -5.730469 C 5.167969 -6.574219 2.863281 -9.941406 1.347656 -15.84375 C 1.125 -17.359375 1.179688 -18.988281 1.574219 -20.785156 C 1.683594 -21.289062 1.628906 -21.628906 1.347656 -21.910156 C 1.347656 -21.964844 1.40625 -22.191406 1.574219 -22.640625 C 1.742188 -23.03125 1.855469 -23.257812 1.855469 -23.371094 L 2.753906 -26.234375 C 3.3125 -26.289062 3.820312 -26.851562 4.214844 -27.808594 C 4.605469 -28.761719 5.449219 -29.550781 6.796875 -30.277344 L 8.820312 -31.289062 C 9.042969 -31.402344 9.214844 -31.457031 9.324219 -31.515625 L 11.574219 -32.019531 C 11.574219 -32.640625 11.402344 -33.425781 11.011719 -34.492188 C 10.617188 -35.449219 10.335938 -36.402344 10.167969 -37.359375 C 10.113281 -37.695312 10.054688 -38.085938 10 -38.59375 C 9.941406 -39.097656 9.886719 -39.378906 9.886719 -39.546875 C 10 -40.617188 9.605469 -41.515625 8.652344 -42.300781 L 9.324219 -44.773438 C 9.71875 -44.773438 10 -44.996094 10.28125 -45.503906 C 10.449219 -45.839844 10.5625 -46.066406 10.671875 -46.175781 C 10.730469 -46.234375 10.84375 -46.234375 10.953125 -46.066406 C 11.066406 -45.953125 11.179688 -45.894531 11.234375 -45.894531 C 11.742188 -45.894531 12.191406 -45.953125 12.640625 -46.007812 C 12.808594 -46.007812 13.257812 -45.839844 14.101562 -45.503906 C 14.941406 -45.222656 15.390625 -45.054688 15.503906 -45.054688 C 15.671875 -44.714844 16.011719 -44.4375 16.460938 -44.15625 C 16.910156 -43.816406 17.191406 -43.535156 17.359375 -43.3125 C 17.527344 -43.03125 17.75 -42.46875 17.921875 -41.683594 L 18.03125 -41.007812 C 18.089844 -40.839844 18.089844 -40.671875 18.089844 -40.558594 C 18.144531 -40.503906 18.144531 -40.445312 18.144531 -40.390625 C 18.425781 -39.660156 18.707031 -39.265625 18.988281 -39.265625 L 20.5625 -34.042969 C 21.851562 -34.71875 23.089844 -35.167969 24.324219 -35.335938 C 26.066406 -35.503906 27.359375 -35.503906 28.089844 -35.222656 C 29.550781 -35.277344 30.222656 -35.167969 30.167969 -34.886719 C 30 -34.492188 30 -34.210938 30.167969 -34.15625 C 30.335938 -34.042969 30.617188 -34.097656 31.007812 -34.324219 C 33.539062 -35.785156 34.71875 -37.246094 34.492188 -38.707031 C 34.941406 -38.988281 35.390625 -39.492188 35.898438 -40.222656 C 36.515625 -41.066406 36.851562 -41.515625 36.90625 -41.570312 C 37.300781 -41.964844 37.636719 -42.300781 37.976562 -42.582031 C 38.144531 -42.75 38.3125 -42.917969 38.59375 -43.144531 C 38.875 -43.367188 38.988281 -43.535156 39.042969 -43.59375 C 39.660156 -43.199219 40.222656 -43.03125 40.617188 -43.03125 C 40.785156 -42.695312 40.839844 -41.90625 40.839844 -40.671875 C 40.839844 -39.605469 40.898438 -38.816406 40.953125 -38.3125 C 41.007812 -37.808594 41.007812 -36.964844 40.898438 -35.785156 C 40.617188 -35.671875 40.445312 -35.503906 40.390625 -35.222656 C 40.335938 -34.886719 40.277344 -34.71875 40.109375 -34.660156 C 40.222656 -34.4375 40.335938 -34.210938 40.390625 -34.042969 C 40.445312 -33.929688 40.503906 -33.761719 40.617188 -33.480469 C 43.144531 -30.730469 45.109375 -29.324219 46.515625 -29.15625 C 47.527344 -27.019531 48.875 -24.71875 50.503906 -22.191406 C 50.894531 -22.191406 51.34375 -21.910156 51.851562 -21.347656 C 52.582031 -21.179688 53.480469 -20.898438 54.433594 -20.449219 C 55.613281 -19.941406 56.289062 -19.660156 56.402344 -19.605469 C 56.792969 -19.492188 58.199219 -18.3125 60.671875 -16.121094 C 60.277344 -16.011719 60.277344 -15.5625 60.671875 -14.832031 C 61.0625 -13.988281 61.234375 -13.425781 61.234375 -13.257812 C 61.175781 -13.257812 61.0625 -13.203125 60.953125 -13.089844 C 60.839844 -12.976562 60.726562 -12.921875 60.671875 -12.976562 L 60.953125 -12.695312 C 60.894531 -12.527344 60.222656 -11.628906 58.816406 -10.054688 C 56.515625 -10.054688 54.714844 -10.730469 53.480469 -12.078125 L 52.695312 -12.078125 C 52.695312 -12.191406 52.636719 -12.300781 52.523438 -12.414062 C 52.414062 -12.527344 52.355469 -12.640625 52.414062 -12.695312 L 52.132812 -12.414062 C 51.175781 -13.144531 50.445312 -12.753906 49.996094 -11.234375 C 49.996094 -10.054688 49.714844 -8.988281 49.210938 -8.035156 C 49.378906 -7.527344 49.265625 -6.628906 48.929688 -5.449219 C 48.929688 -5.394531 48.984375 -5.335938 49.042969 -5.167969 C 49.210938 -5 49.265625 -4.945312 49.210938 -4.886719 C 48.253906 -4.4375 47.582031 -4.042969 47.300781 -3.707031 Z M 16.570312 -15.5625 C 17.863281 -16.460938 16.964844 -19.15625 13.875 -23.59375 C 13.480469 -23.089844 12.863281 -22.695312 12.132812 -22.414062 C 11.964844 -22.300781 11.742188 -22.191406 11.574219 -22.132812 C 11.347656 -22.078125 11.179688 -22.019531 11.121094 -21.964844 L 10.953125 -21.910156 C 10.898438 -21.910156 10.898438 -21.460938 10.84375 -20.5625 C 10.84375 -20.503906 10.84375 -20.449219 10.785156 -20.28125 L 10.671875 -19.660156 C 10.5625 -19.4375 10.503906 -19.210938 10.449219 -18.929688 C 10.394531 -18.761719 10.335938 -18.539062 10.335938 -18.203125 C 10.222656 -17.921875 10.222656 -17.695312 10.167969 -17.582031 L 10.394531 -17.300781 C 9.773438 -16.570312 9.664062 -15.785156 10 -14.941406 C 10.394531 -14.101562 10.953125 -13.539062 11.742188 -13.257812 C 13.03125 -12.300781 13.707031 -11.851562 13.875 -11.796875 C 14.15625 -11.683594 14.4375 -11.742188 14.71875 -12.023438 C 15.054688 -12.300781 15.335938 -12.414062 15.503906 -12.414062 C 15.503906 -12.808594 15.84375 -13.371094 16.570312 -14.101562 Z M 24.042969 -19.71875 C 23.707031 -20.054688 24.605469 -21.964844 26.738281 -25.449219 C 26.910156 -25.785156 27.191406 -26.515625 27.527344 -27.640625 L 27.808594 -27.132812 L 28.089844 -26.570312 L 27.808594 -28.988281 C 24.378906 -28.988281 22.414062 -28.820312 21.910156 -28.539062 C 21.628906 -27.527344 21.742188 -26.289062 22.246094 -24.773438 C 22.75 -23.3125 22.976562 -22.246094 22.976562 -21.515625 C 23.199219 -20.730469 23.539062 -20.109375 24.042969 -19.71875 Z M 37.1875 -9.101562 C 37.300781 -9.042969 37.582031 -8.933594 38.03125 -8.761719 C 38.425781 -8.59375 38.707031 -8.484375 38.929688 -8.425781 C 39.660156 -9.71875 40.222656 -10.394531 40.671875 -10.394531 C 40.445312 -10.898438 40.503906 -11.515625 40.785156 -12.246094 C 41.175781 -13.144531 41.347656 -13.652344 41.234375 -13.761719 C 40.785156 -14.324219 39.210938 -14.101562 36.570312 -13.089844 C 36.570312 -10.730469 36.796875 -9.382812 37.1875 -9.101562 Z M 37.1875 -9.101562 "/></g></g></g><g fill="#ffffff" fill-opacity="1"><g transform="translate(218.720341, 62.747182)"><g><path d="M 21.742188 -36.683594 C 19.382812 -33.820312 17.132812 -30.503906 15.054688 -26.851562 C 15.054688 -26.570312 15.113281 -26.402344 15.222656 -26.289062 C 15.113281 -26.289062 14.941406 -26.179688 14.664062 -25.898438 C 14.492188 -25.617188 14.210938 -25.054688 13.820312 -24.269531 C 13.539062 -23.539062 13.203125 -22.976562 12.808594 -22.582031 C 12.808594 -22.300781 12.695312 -21.964844 12.472656 -21.460938 C 12.191406 -20.953125 12.078125 -20.617188 12.078125 -20.335938 L 11.910156 -20.28125 L 11.683594 -20.167969 C 11.851562 -19.605469 11.851562 -19.15625 11.796875 -18.875 C 11.742188 -18.59375 11.515625 -18.203125 11.234375 -17.695312 L 11.011719 -17.191406 L 10.785156 -16.742188 L 10.617188 -16.460938 C 10.617188 -16.964844 10.730469 -17.246094 10.953125 -17.414062 C 10.953125 -18.371094 11.066406 -19.550781 11.347656 -20.898438 L 11.179688 -21.011719 L 10.953125 -21.121094 C 10.785156 -20.785156 10.5625 -20.222656 10.394531 -19.4375 C 10.28125 -18.707031 10.167969 -18.203125 10.054688 -17.976562 C 9.941406 -17.976562 9.886719 -17.921875 9.886719 -17.863281 C 9.886719 -17.808594 9.832031 -17.75 9.664062 -17.75 C 9.664062 -17.414062 9.550781 -17.023438 9.382812 -16.628906 C 9.214844 -16.121094 9.15625 -15.730469 9.324219 -15.5625 C 9.15625 -15.5625 9.101562 -15.503906 9.101562 -15.449219 C 9.101562 -15.390625 9.042969 -15.335938 8.933594 -15.335938 C 8.933594 -14.71875 8.820312 -14.324219 8.539062 -14.042969 C 7.246094 -14.832031 6.125 -15.335938 5.222656 -15.5625 C 5.113281 -15.390625 5.054688 -15.167969 5.054688 -14.886719 C 5.054688 -14.605469 5 -14.382812 4.832031 -14.269531 C 4.101562 -14.492188 3.765625 -14.773438 3.765625 -15.167969 C 3.484375 -15.167969 3.371094 -15 3.371094 -14.605469 C 2.753906 -15.222656 2.359375 -16.347656 2.191406 -17.863281 C 2.023438 -19.15625 1.910156 -19.941406 1.910156 -20.335938 C 2.023438 -20.503906 2.078125 -20.671875 2.078125 -20.953125 C 2.191406 -21.289062 2.359375 -21.460938 2.640625 -21.460938 C 2.640625 -21.742188 2.527344 -21.851562 2.246094 -21.851562 C 2.527344 -22.078125 2.753906 -22.191406 2.808594 -22.191406 L 2.808594 -22.582031 C 2.921875 -22.695312 2.976562 -22.921875 2.976562 -23.3125 C 2.808594 -23.480469 2.640625 -23.539062 2.472656 -23.539062 L 2.527344 -23.707031 L 2.640625 -23.875 C 2.640625 -23.652344 2.753906 -23.539062 2.976562 -23.539062 C 3.144531 -23.707031 3.257812 -24.101562 3.371094 -24.71875 C 3.484375 -25.28125 3.539062 -25.671875 3.539062 -25.898438 L 3.371094 -26.011719 L 3.203125 -26.121094 L 2.976562 -25.898438 C 2.976562 -26.179688 3.089844 -26.347656 3.371094 -26.402344 L 3.765625 -26.460938 C 4.71875 -28.761719 5.222656 -30 5.394531 -30.167969 C 5.28125 -30.671875 5.449219 -31.179688 5.953125 -31.683594 C 5.953125 -31.851562 6.066406 -32.132812 6.347656 -32.527344 C 6.574219 -32.917969 6.683594 -33.257812 6.683594 -33.539062 C 6.855469 -33.539062 6.910156 -33.539062 6.910156 -33.59375 C 6.910156 -33.648438 6.964844 -33.707031 7.078125 -33.707031 L 7.078125 -34.269531 C 7.472656 -35.277344 8.3125 -36.628906 9.492188 -38.367188 C 9.492188 -38.425781 9.4375 -38.480469 9.382812 -38.539062 C 9.324219 -38.59375 9.324219 -38.648438 9.324219 -38.707031 C 9.4375 -38.707031 9.550781 -38.648438 9.664062 -38.539062 C 9.941406 -39.097656 10.503906 -39.773438 11.234375 -40.558594 C 12.023438 -41.402344 12.527344 -42.078125 12.808594 -42.582031 L 12.640625 -42.808594 L 13.03125 -42.808594 C 13.03125 -43.03125 13.144531 -43.199219 13.371094 -43.367188 L 13.371094 -43.929688 C 13.988281 -44.042969 14.4375 -44.605469 14.664062 -45.558594 L 14.886719 -45.503906 L 15.054688 -45.390625 C 15.28125 -45.894531 15.28125 -46.234375 15.054688 -46.515625 L 15.617188 -46.515625 L 15.617188 -46.851562 C 16.121094 -47.132812 16.460938 -47.132812 16.742188 -46.851562 L 16.910156 -47.074219 C 16.910156 -47.1875 16.851562 -47.246094 16.796875 -47.246094 C 16.742188 -47.246094 16.742188 -47.300781 16.742188 -47.414062 C 16.851562 -47.414062 16.910156 -47.414062 16.910156 -47.355469 C 16.910156 -47.300781 16.964844 -47.246094 17.078125 -47.246094 L 17.300781 -47.414062 C 17.132812 -47.527344 17.078125 -47.695312 17.078125 -47.976562 C 18.707031 -49.433594 20.390625 -50.445312 22.078125 -50.953125 L 22.191406 -50.785156 L 22.300781 -50.558594 C 22.695312 -50.558594 23.875 -50.277344 25.785156 -49.660156 C 25.953125 -49.773438 26.179688 -49.828125 26.347656 -49.828125 L 26.460938 -49.660156 L 26.515625 -49.492188 C 27.246094 -49.492188 27.808594 -49.378906 28.199219 -49.097656 L 29.71875 -49.097656 C 30 -48.816406 30.390625 -48.707031 31.007812 -48.707031 C 36.066406 -46.851562 40.617188 -43.988281 44.714844 -40.222656 C 45.054688 -39.941406 45.445312 -39.605469 45.839844 -39.15625 C 46.347656 -38.59375 46.796875 -38.257812 47.132812 -38.144531 C 47.46875 -37.414062 48.03125 -36.851562 48.761719 -36.515625 L 48.761719 -36.121094 C 48.816406 -36.066406 48.929688 -36.007812 49.097656 -35.839844 C 49.265625 -35.726562 49.378906 -35.617188 49.433594 -35.558594 C 49.605469 -35.449219 49.828125 -35.222656 50.109375 -34.828125 C 49.941406 -34.378906 50.054688 -33.707031 50.390625 -32.863281 C 50.671875 -32.019531 50.839844 -31.457031 50.839844 -31.121094 C 49.605469 -29.269531 48.535156 -28.707031 47.695312 -29.4375 L 47.46875 -29.269531 C 47.355469 -29.378906 47.1875 -29.4375 46.964844 -29.4375 C 46.796875 -29.324219 46.570312 -29.269531 46.402344 -29.324219 C 46.175781 -29.4375 46.007812 -29.4375 45.839844 -29.269531 C 45.839844 -29.378906 45.785156 -29.4375 45.726562 -29.4375 C 45.671875 -29.4375 45.617188 -29.492188 45.617188 -29.605469 C 45.503906 -29.492188 45.335938 -29.492188 45.167969 -29.605469 C 44.996094 -29.773438 44.886719 -29.828125 44.714844 -29.828125 C 44.265625 -30.277344 43.875 -30.558594 43.59375 -30.730469 C 43.3125 -31.179688 42.636719 -31.796875 41.570312 -32.527344 C 40.503906 -33.257812 39.828125 -33.761719 39.546875 -34.097656 L 39.15625 -34.097656 C 36.738281 -35.785156 35.503906 -36.628906 35.449219 -36.683594 C 35.449219 -36.851562 35.277344 -36.964844 34.886719 -37.132812 C 34.492188 -37.300781 34.269531 -37.527344 34.15625 -37.808594 C 33.539062 -38.03125 32.695312 -38.425781 31.628906 -38.988281 C 30.671875 -39.546875 29.941406 -39.886719 29.492188 -39.996094 C 29.492188 -40.167969 29.492188 -40.222656 29.4375 -40.222656 C 29.378906 -40.222656 29.324219 -40.277344 29.324219 -40.390625 L 28.59375 -40.390625 C 27.695312 -41.234375 26.738281 -41.234375 25.785156 -40.390625 L 25.785156 -38.707031 L 25.617188 -38.816406 L 25.449219 -38.875 C 25.449219 -38.761719 25.390625 -38.707031 25.335938 -38.707031 C 25.28125 -38.707031 25.222656 -38.648438 25.222656 -38.539062 C 25.109375 -38.648438 24.941406 -38.707031 24.71875 -38.707031 C 24.4375 -38.707031 24.324219 -38.761719 24.324219 -38.875 C 24.042969 -38.761719 23.652344 -38.480469 23.03125 -37.976562 C 22.414062 -37.46875 21.964844 -37.019531 21.742188 -36.683594 Z M 14.101562 -27.246094 C 14.101562 -28.089844 14.382812 -28.707031 14.886719 -29.097656 C 15.730469 -30.617188 16.121094 -31.402344 16.179688 -31.457031 C 16.179688 -31.628906 16.121094 -31.683594 15.953125 -31.683594 C 15.113281 -30.503906 14.324219 -28.929688 13.59375 -27.019531 C 13.089844 -26.289062 12.808594 -25.671875 12.808594 -25.167969 C 12.527344 -25.054688 12.359375 -24.773438 12.191406 -24.269531 C 11.910156 -23.652344 11.742188 -23.371094 11.683594 -23.3125 L 12.246094 -23.875 L 12.246094 -24.269531 C 12.863281 -24.605469 13.203125 -25.109375 13.203125 -25.730469 C 13.480469 -25.839844 13.652344 -26.066406 13.761719 -26.460938 C 13.875 -26.796875 13.988281 -27.078125 14.101562 -27.246094 Z M 38.425781 -9.042969 C 37.976562 -9.324219 37.246094 -9.269531 36.179688 -8.988281 C 35.109375 -8.652344 34.378906 -8.539062 33.929688 -8.707031 C 33.59375 -8.3125 32.976562 -8.035156 32.132812 -7.863281 C 31.179688 -7.582031 30.503906 -7.359375 30.222656 -7.191406 L 28.929688 -7.191406 C 27.300781 -7.695312 26.347656 -8.203125 26.011719 -8.707031 C 25.839844 -8.707031 25.785156 -8.652344 25.785156 -8.59375 C 25.785156 -8.539062 25.730469 -8.484375 25.617188 -8.484375 L 25.617188 -7.582031 C 24.886719 -6.066406 24.832031 -4.4375 25.449219 -2.585938 C 26.402344 -2.078125 27.527344 -1.796875 28.761719 -1.796875 C 30.222656 -2.191406 31.234375 -1.460938 31.738281 0.394531 C 31.738281 0.5625 31.851562 0.675781 32.132812 0.785156 L 32.46875 0.953125 C 32.359375 0.953125 32.300781 1.066406 32.300781 1.292969 C 32.300781 1.460938 32.1875 1.574219 31.910156 1.683594 C 31.796875 2.472656 31.457031 2.976562 30.898438 3.257812 C 30.390625 3.539062 29.605469 3.765625 28.59375 3.820312 C 27.695312 3.875 27.019531 3.933594 26.515625 4.101562 L 24.324219 4.101562 C 23.089844 4.101562 22.414062 3.988281 22.300781 3.765625 C 21.121094 2.585938 20.28125 1.628906 19.886719 0.953125 C 19.71875 0.84375 19.605469 0.503906 19.492188 -0.0546875 C 19.382812 -0.617188 19.210938 -0.953125 18.929688 -1.066406 C 18.929688 -1.234375 18.988281 -1.292969 19.042969 -1.292969 C 19.101562 -1.292969 19.101562 -1.347656 19.101562 -1.460938 C 18.875 -1.574219 18.761719 -1.796875 18.761719 -2.078125 C 18.761719 -2.414062 18.707031 -2.640625 18.59375 -2.753906 C 18.425781 -3.933594 18.480469 -5.84375 18.652344 -8.59375 C 18.820312 -10.671875 18.929688 -12.472656 18.929688 -13.875 C 19.550781 -18.089844 20.054688 -20.785156 20.449219 -22.019531 C 20.449219 -22.75 20.109375 -23.425781 19.492188 -24.042969 C 19.492188 -24.660156 19.382812 -25.054688 19.101562 -25.167969 C 19.101562 -25.335938 19.042969 -25.558594 18.929688 -25.898438 C 18.820312 -26.289062 18.820312 -26.515625 18.929688 -26.683594 C 19.4375 -27.132812 19.832031 -27.582031 20.054688 -27.976562 C 20.335938 -27.808594 20.5625 -27.917969 20.785156 -28.257812 C 21.066406 -28.539062 21.289062 -28.707031 21.347656 -28.707031 L 21.910156 -28.707031 C 22.019531 -28.820312 22.078125 -28.988281 22.078125 -29.269531 C 24.042969 -29.886719 25.167969 -30.558594 25.449219 -31.289062 C 24.941406 -32.132812 24.832031 -32.695312 25.054688 -32.976562 C 24.550781 -34.828125 24.605469 -36.179688 25.222656 -37.019531 L 25.054688 -37.246094 C 25.109375 -37.300781 25.390625 -37.46875 26.011719 -37.808594 C 26.515625 -38.085938 26.910156 -38.3125 27.078125 -38.539062 C 27.246094 -38.425781 27.695312 -38.367188 28.425781 -38.367188 C 28.539062 -38.085938 28.761719 -37.976562 29.15625 -37.976562 C 29.550781 -37.976562 29.773438 -37.917969 29.886719 -37.808594 L 30.054688 -37.976562 C 30.335938 -38.085938 30.617188 -37.976562 30.898438 -37.695312 C 31.289062 -37.414062 31.515625 -37.246094 31.570312 -37.246094 C 31.570312 -37.078125 31.910156 -36.457031 32.640625 -35.390625 C 32.640625 -34.773438 32.582031 -34.378906 32.46875 -34.269531 C 32.582031 -34.15625 32.640625 -33.820312 32.640625 -33.3125 L 32.640625 -32.414062 C 32.300781 -32.1875 32.300781 -31.851562 32.640625 -31.457031 C 34.042969 -31.121094 34.828125 -31.007812 35.054688 -31.121094 C 35.054688 -31.007812 35.109375 -30.953125 35.167969 -30.953125 C 35.222656 -30.953125 35.277344 -30.898438 35.277344 -30.730469 L 36.179688 -30.730469 C 36.179688 -30.617188 36.234375 -30.558594 36.289062 -30.558594 C 36.347656 -30.558594 36.347656 -30.503906 36.347656 -30.390625 C 36.515625 -30.617188 36.851562 -30.617188 37.414062 -30.390625 C 37.917969 -30.109375 38.257812 -30 38.425781 -30 C 38.425781 -29.886719 38.425781 -29.828125 38.480469 -29.828125 C 38.539062 -29.828125 38.59375 -29.773438 38.59375 -29.605469 C 38.707031 -29.605469 38.761719 -29.660156 38.761719 -29.71875 C 38.761719 -29.773438 38.816406 -29.828125 38.988281 -29.828125 C 39.097656 -29.828125 39.15625 -29.71875 39.15625 -29.550781 C 39.15625 -29.492188 39.210938 -29.378906 39.324219 -29.269531 C 39.605469 -29.269531 39.773438 -29.15625 39.886719 -28.875 L 40.277344 -28.875 C 40.503906 -28.371094 40.785156 -28.144531 41.175781 -28.144531 C 41.175781 -27.863281 41.234375 -27.695312 41.347656 -27.582031 C 41.964844 -27.078125 42.695312 -26.234375 43.480469 -25 L 44.714844 -23.144531 C 44.996094 -21.515625 45.277344 -19.660156 45.445312 -17.582031 L 45.445312 -15.898438 C 45.335938 -15.785156 45.277344 -15.617188 45.277344 -15.335938 L 45.335938 -15.167969 L 45.445312 -15 C 44.714844 -14.269531 44.324219 -13.539062 44.324219 -12.921875 C 44.15625 -12.921875 43.929688 -12.863281 43.761719 -12.753906 C 43.761719 -12.472656 43.425781 -12.191406 42.695312 -11.851562 C 42.527344 -11.574219 42.300781 -11.292969 41.90625 -10.898438 C 41.515625 -10.503906 41.289062 -10.222656 41.175781 -10 C 40.785156 -10 40.335938 -9.832031 39.71875 -9.492188 C 39.042969 -9.214844 38.59375 -9.042969 38.425781 -9.042969 Z M 31.007812 -24.042969 C 30.390625 -24.042969 29.660156 -23.988281 28.875 -23.820312 C 28.089844 -23.652344 27.582031 -23.539062 27.300781 -23.539062 C 27.527344 -23.371094 27.640625 -23.089844 27.640625 -22.75 C 27.640625 -22.359375 27.695312 -22.132812 27.863281 -22.019531 C 27.976562 -22.019531 28.3125 -22.078125 28.929688 -22.132812 C 29.4375 -22.191406 29.71875 -22.191406 29.886719 -22.019531 C 30.109375 -22.300781 30.503906 -22.414062 31.066406 -22.414062 L 32.132812 -22.414062 C 32.246094 -22.300781 32.414062 -22.300781 32.640625 -22.46875 C 32.917969 -22.640625 33.089844 -22.640625 33.199219 -22.414062 C 33.3125 -22.414062 33.539062 -22.46875 33.875 -22.582031 C 34.15625 -22.695312 34.324219 -22.75 34.492188 -22.75 L 35.558594 -22.75 C 35.953125 -22.75 36.289062 -22.808594 36.570312 -22.976562 C 36.234375 -23.371094 35.953125 -23.652344 35.726562 -23.707031 C 35.390625 -23.820312 35 -23.875 34.492188 -23.875 C 33.988281 -23.875 33.648438 -23.929688 33.425781 -24.042969 C 33.144531 -24.042969 32.863281 -24.042969 32.582031 -23.988281 C 32.132812 -23.929688 31.851562 -23.929688 31.738281 -24.042969 C 31.457031 -23.820312 31.234375 -23.820312 31.007812 -24.042969 Z M 28.425781 -14.042969 C 30.730469 -14.664062 33.59375 -15.113281 37.132812 -15.335938 C 37.246094 -15.222656 37.527344 -15.167969 38.03125 -15.167969 C 38.480469 -15.167969 38.875 -15.113281 39.15625 -15 L 39.324219 -15.167969 C 39.324219 -15.449219 39.210938 -15.785156 39.042969 -16.121094 C 38.875 -16.515625 38.761719 -16.742188 38.761719 -16.851562 L 38.59375 -16.628906 C 37.976562 -17.023438 37.359375 -17.023438 36.738281 -16.628906 C 36.515625 -16.515625 35.898438 -16.402344 34.886719 -16.292969 C 34.042969 -16.179688 33.257812 -16.011719 32.640625 -15.730469 C 32.1875 -15.84375 31.570312 -15.785156 30.785156 -15.5625 C 30.109375 -15.28125 29.605469 -15.167969 29.324219 -15.167969 C 29.210938 -15.054688 28.929688 -14.886719 28.425781 -14.71875 C 27.917969 -14.550781 27.527344 -14.324219 27.300781 -14.042969 C 27.300781 -13.933594 27.359375 -13.875 27.46875 -13.875 C 27.582031 -13.875 27.75 -13.988281 28.03125 -14.269531 L 28.199219 -14.15625 Z M 51.570312 1.910156 C 50.839844 1.40625 50.390625 0.898438 50.277344 0.394531 L 49.886719 0.394531 L 48.984375 -0.503906 C 48.816406 -0.503906 48.761719 -0.503906 48.761719 -0.449219 C 48.761719 -0.394531 48.707031 -0.335938 48.59375 -0.335938 C 48.085938 -0.335938 47.804688 -0.449219 47.695312 -0.730469 C 47.132812 -0.5625 45.726562 -0.84375 43.425781 -1.460938 C 43.3125 -1.574219 43.257812 -1.796875 43.257812 -2.191406 C 45.335938 -3.3125 46.570312 -3.875 46.964844 -3.875 C 47.074219 -4.382812 47.527344 -4.832031 48.253906 -5.335938 C 48.253906 -5.503906 48.3125 -5.675781 48.425781 -5.898438 C 48.535156 -6.125 48.59375 -6.292969 48.59375 -6.460938 C 48.425781 -6.628906 48.367188 -6.796875 48.3125 -7.023438 C 48.253906 -7.304688 48.144531 -7.527344 48.03125 -7.582031 C 48.425781 -7.695312 48.480469 -8.203125 48.253906 -9.042969 C 47.976562 -9.886719 47.863281 -10.394531 47.863281 -10.5625 C 47.863281 -10.671875 47.582031 -10.84375 46.964844 -11.066406 C 46.683594 -11.066406 46.289062 -10.898438 45.726562 -10.5625 C 45.222656 -10.167969 44.714844 -10.054688 44.324219 -10.167969 C 42.863281 -9.492188 41.175781 -8.652344 39.324219 -7.582031 C 39.15625 -7.582031 39.097656 -7.472656 39.042969 -7.191406 C 38.988281 -6.964844 38.875 -6.855469 38.59375 -6.855469 C 38.480469 -6.964844 38.3125 -6.964844 38.144531 -6.855469 C 37.976562 -6.683594 37.808594 -6.628906 37.636719 -6.628906 C 37.636719 -6.515625 37.636719 -6.460938 37.582031 -6.460938 C 37.527344 -6.460938 37.46875 -6.402344 37.46875 -6.292969 C 37.359375 -6.402344 37.1875 -6.460938 36.90625 -6.460938 C 36.628906 -6.179688 36.402344 -5.785156 36.179688 -5.167969 C 35.953125 -4.550781 35.726562 -4.214844 35.449219 -4.042969 C 35.449219 -3.765625 35.390625 -3.3125 35.277344 -2.585938 C 35.109375 -1.855469 35.109375 -1.292969 35.277344 -0.898438 C 35.390625 -0.675781 35.503906 -0.449219 35.671875 -0.167969 C 35.839844 0.113281 35.953125 0.28125 36.007812 0.449219 L 36.179688 0.785156 C 36.289062 0.898438 36.628906 1.179688 37.132812 1.628906 C 37.582031 2.023438 37.808594 2.191406 37.863281 2.246094 C 43.59375 3.988281 46.625 4.832031 46.964844 4.832031 C 47.132812 5 47.636719 5.113281 48.425781 5.222656 C 49.210938 5.335938 49.714844 5.449219 49.886719 5.617188 C 50.054688 5.617188 50.390625 5.503906 51.007812 5.222656 C 51.90625 3.988281 52.074219 2.863281 51.570312 1.910156 Z M 51.570312 1.910156 "/></g></g></g><g fill="#ffffff" fill-opacity="1"><g transform="translate(273.202911, 62.747182)"><g><path d="M 3.371094 -40.558594 C 3.203125 -40.558594 3.144531 -40.558594 3.144531 -40.617188 C 3.144531 -40.671875 3.035156 -40.726562 2.863281 -40.726562 C 2.078125 -43.480469 3.933594 -47.414062 8.371094 -52.523438 C 8.761719 -52.523438 8.988281 -52.46875 9.15625 -52.300781 L 9.382812 -52.523438 C 12.359375 -49.660156 13.761719 -47.132812 13.652344 -44.828125 C 13.652344 -44.660156 13.59375 -44.605469 13.480469 -44.605469 C 13.425781 -44.605469 13.371094 -44.546875 13.371094 -44.378906 C 10.167969 -44.660156 7.582031 -44.042969 5.617188 -42.46875 C 4.945312 -41.289062 4.214844 -40.671875 3.371094 -40.558594 Z M 32.359375 -47.355469 C 32.359375 -48.648438 32.246094 -49.378906 32.078125 -49.546875 C 32.917969 -50.671875 33.539062 -51.234375 33.820312 -51.234375 C 35.335938 -50.222656 36.90625 -49.941406 38.59375 -50.390625 C 42.132812 -49.265625 44.605469 -47.976562 46.066406 -46.515625 C 46.570312 -46.007812 46.964844 -45.335938 47.300781 -44.605469 C 47.300781 -44.324219 47.132812 -43.875 46.796875 -43.3125 C 46.796875 -43.144531 46.625 -43.03125 46.347656 -42.863281 C 46.007812 -42.75 45.839844 -42.636719 45.839844 -42.46875 C 45.167969 -42.46875 44.492188 -42.1875 43.816406 -41.628906 C 43.3125 -41.738281 42.527344 -41.796875 41.570312 -41.796875 C 41.175781 -42.132812 40.558594 -42.414062 39.828125 -42.695312 C 39.042969 -42.976562 38.539062 -43.085938 38.3125 -43.085938 C 38.3125 -43.257812 37.75 -43.535156 36.570312 -43.929688 C 36.570312 -44.210938 36.515625 -44.4375 36.347656 -44.605469 C 35.671875 -44.4375 34.660156 -45.109375 33.367188 -46.738281 C 33.03125 -46.570312 32.808594 -46.683594 32.695312 -46.964844 C 32.640625 -47.246094 32.527344 -47.355469 32.359375 -47.355469 Z M 59.378906 -29.378906 C 59.714844 -29.097656 59.882812 -28.648438 59.882812 -27.917969 C 59.152344 -27.246094 58.703125 -26.738281 58.59375 -26.402344 C 57.46875 -26.121094 56.738281 -26.066406 56.34375 -26.179688 C 55.785156 -25.785156 54.941406 -25.558594 53.875 -25.558594 C 53.480469 -25.558594 53.144531 -25.785156 52.75 -26.179688 C 52.355469 -26.628906 52.019531 -26.851562 51.625 -26.851562 C 51.570312 -26.910156 51.234375 -27.246094 50.503906 -27.917969 C 49.886719 -28.480469 49.492188 -28.820312 49.378906 -28.988281 L 48.761719 -29.15625 C 48.648438 -29.210938 48.425781 -29.324219 48.144531 -29.605469 C 47.976562 -29.773438 47.804688 -29.828125 47.636719 -29.828125 C 47.636719 -30 47.582031 -30.054688 47.527344 -30.054688 C 47.414062 -30.054688 47.355469 -30.109375 47.355469 -30.277344 L 46.90625 -30.277344 C 46.347656 -30.558594 45.953125 -30.898438 45.726562 -31.234375 C 45.445312 -31.570312 45.167969 -31.796875 44.828125 -31.964844 L 44.605469 -31.738281 C 43.59375 -32.019531 42.019531 -32.300781 39.828125 -32.582031 L 34.828125 -33.257812 C 34.492188 -32.976562 33.929688 -33.03125 33.089844 -33.480469 C 29.773438 -33.480469 27.078125 -33.3125 25.109375 -33.03125 L 24.832031 -33.144531 L 24.605469 -33.257812 C 24.4375 -33.089844 23.875 -33.03125 22.863281 -33.03125 C 22.414062 -32.863281 21.742188 -32.75 20.839844 -32.582031 C 20.449219 -32.527344 19.773438 -32.414062 18.875 -32.1875 C 18.707031 -32.132812 18.59375 -32.132812 18.59375 -32.300781 C 18.59375 -32.359375 18.539062 -32.414062 18.371094 -32.414062 C 18.371094 -32.246094 18.3125 -32.1875 18.257812 -32.1875 C 18.203125 -32.1875 18.144531 -32.132812 18.144531 -31.964844 L 17.863281 -32.078125 L 17.640625 -32.1875 L 17.359375 -31.964844 C 17.191406 -31.796875 17.132812 -31.851562 17.132812 -32.078125 C 17.132812 -32.246094 17.023438 -32.246094 16.851562 -32.1875 C 16.570312 -32.019531 16.234375 -31.964844 15.898438 -31.964844 C 15.617188 -32.132812 14.605469 -32.019531 12.863281 -31.738281 C 12.472656 -32.078125 12.191406 -32.246094 12.132812 -32.1875 L 11.851562 -32.078125 L 11.628906 -31.964844 C 11.460938 -31.457031 11.121094 -30.785156 10.503906 -29.941406 C 9.773438 -28.988281 9.4375 -28.371094 9.382812 -28.089844 C 9.214844 -27.414062 9.042969 -26.851562 8.875 -26.402344 L 9.15625 -26.179688 C 8.820312 -24.210938 8.988281 -22.976562 9.605469 -22.527344 C 9.605469 -21.683594 9.382812 -21.121094 8.875 -20.839844 C 8.707031 -20.671875 8.371094 -20.617188 7.863281 -20.617188 C 7.359375 -20.617188 6.910156 -20.5625 6.628906 -20.390625 C 6.234375 -20.5625 5.84375 -20.898438 5.394531 -21.347656 C 4.886719 -21.851562 4.4375 -22.191406 4.15625 -22.359375 C 3.707031 -23.089844 3.144531 -24.605469 2.414062 -26.851562 C 2.808594 -27.191406 2.921875 -27.414062 2.863281 -27.46875 C 2.585938 -27.863281 2.527344 -28.257812 2.640625 -28.761719 C 2.808594 -29.324219 2.808594 -29.773438 2.640625 -30.054688 C 2.976562 -31.179688 3.144531 -32.078125 3.144531 -32.808594 C 3.425781 -33.3125 4.042969 -34.378906 5.113281 -35.953125 C 6.179688 -37.359375 6.855469 -38.367188 7.132812 -39.042969 L 7.023438 -39.265625 L 6.910156 -39.4375 C 7.132812 -39.660156 7.359375 -39.828125 7.527344 -39.886719 C 7.582031 -39.941406 7.640625 -39.996094 7.753906 -39.996094 C 7.808594 -40.109375 7.921875 -40.109375 7.976562 -40.222656 C 8.035156 -40.222656 8.089844 -40.277344 8.144531 -40.335938 C 8.3125 -40.503906 8.484375 -40.558594 8.652344 -40.558594 C 10.84375 -39.941406 12.246094 -39.210938 12.863281 -38.367188 C 13.257812 -38.367188 13.761719 -38.257812 14.382812 -37.976562 C 15.222656 -38.144531 16.292969 -38.3125 17.640625 -38.480469 C 19.15625 -38.707031 20.222656 -38.988281 20.839844 -39.265625 C 22.359375 -39.265625 23.3125 -39.492188 23.59375 -39.886719 C 22.976562 -40.390625 22.527344 -41.121094 22.132812 -42.019531 C 21.851562 -42.75 21.628906 -43.816406 21.347656 -45.109375 C 21.179688 -46.175781 21.011719 -47.019531 20.839844 -47.582031 C 20.390625 -49.378906 21.066406 -51.457031 22.863281 -53.816406 C 24.492188 -54.546875 25.617188 -54.714844 26.121094 -54.433594 C 26.347656 -53.929688 26.570312 -53.535156 26.738281 -53.253906 C 26.910156 -52.976562 27.191406 -52.636719 27.582031 -52.1875 C 27.917969 -51.796875 28.199219 -51.515625 28.371094 -51.234375 C 28.199219 -50.671875 28.199219 -49.828125 28.371094 -48.648438 C 28.539062 -47.636719 28.59375 -46.796875 28.59375 -46.121094 C 29.605469 -43.707031 29.550781 -41.738281 28.371094 -40.335938 L 28.371094 -39.660156 C 28.539062 -39.660156 28.59375 -39.605469 28.59375 -39.546875 C 28.59375 -39.378906 28.707031 -39.324219 28.875 -39.4375 L 29.097656 -39.660156 C 29.269531 -39.546875 29.660156 -39.546875 30.335938 -39.660156 C 31.007812 -39.828125 31.402344 -39.828125 31.570312 -39.660156 C 32.1875 -39.210938 33.199219 -39.15625 34.605469 -39.4375 L 38.816406 -38.816406 C 39.210938 -38.539062 39.4375 -38.367188 39.605469 -38.367188 C 39.605469 -38.539062 39.886719 -38.59375 40.445312 -38.59375 L 41.570312 -38.59375 C 42.75 -38.144531 43.425781 -37.917969 43.707031 -37.863281 C 44.660156 -37.636719 45.277344 -37.46875 45.558594 -37.300781 C 46.738281 -37.300781 47.527344 -37.1875 47.804688 -36.90625 C 48.144531 -37.019531 48.648438 -36.90625 49.324219 -36.570312 C 49.660156 -36.347656 49.886719 -36.234375 50.054688 -36.234375 L 50.839844 -36.234375 C 53.929688 -34.15625 56.34375 -32.359375 58.144531 -30.898438 C 58.3125 -30.390625 58.761719 -29.886719 59.378906 -29.378906 Z M 48.761719 -23.199219 L 50.054688 -20.335938 C 50.222656 -19.941406 50.671875 -19.042969 51.34375 -17.75 C 51.683594 -17.132812 51.402344 -16.628906 50.558594 -16.347656 C 50.390625 -16.292969 50.277344 -16.011719 50.277344 -15.617188 C 49.097656 -15.785156 48.085938 -15.449219 47.1875 -14.664062 C 46.683594 -14.664062 46.347656 -14.773438 46.175781 -14.941406 C 45.671875 -14.324219 44.660156 -13.933594 43.085938 -13.875 C 41.457031 -13.761719 40.445312 -13.539062 39.996094 -13.257812 C 39.660156 -13.425781 38.257812 -13.257812 35.839844 -12.808594 C 35.335938 -12.191406 35.167969 -11.460938 35.335938 -10.503906 C 35.503906 -10.671875 35.839844 -10.671875 36.347656 -10.617188 C 37.019531 -10.5625 37.359375 -10.503906 37.414062 -10.503906 C 37.695312 -10.503906 38.480469 -10.5625 39.71875 -10.730469 C 40.953125 -10.898438 41.738281 -10.953125 42.019531 -10.953125 C 42.582031 -10.730469 43.085938 -10.730469 43.59375 -10.953125 C 43.707031 -10.84375 44.886719 -10.113281 47.1875 -8.820312 C 47.355469 -8.539062 47.300781 -8.203125 46.964844 -7.808594 C 46.625 -7.414062 46.457031 -7.132812 46.457031 -6.964844 L 43.3125 -4.832031 C 43.144531 -5 42.808594 -5.054688 42.1875 -5.054688 C 41.683594 -5.054688 41.175781 -5.113281 40.726562 -5.28125 L 40.503906 -5.167969 L 40.222656 -5.054688 C 39.828125 -5.222656 39.097656 -5.335938 38.144531 -5.449219 C 37.019531 -5.503906 36.402344 -5.5625 36.347656 -5.5625 C 36.179688 -5.5625 36.007812 -5.449219 35.839844 -5.28125 C 35.617188 -5.113281 35.449219 -5.054688 35.335938 -5.054688 C 35.335938 -4.550781 35.390625 -4.269531 35.558594 -4.101562 C 35.054688 -3.652344 34.886719 -3.035156 35.054688 -2.304688 C 35.617188 -2.304688 36.515625 -2.191406 37.75 -1.964844 C 38.988281 -1.683594 39.996094 -1.683594 40.726562 -1.855469 L 46.964844 -0.394531 C 46.964844 0.0546875 47.414062 0.28125 48.253906 0.28125 L 48.253906 0.785156 C 48.984375 1.460938 49.210938 2.246094 48.984375 3.144531 C 48.929688 3.539062 48.425781 3.933594 47.46875 4.324219 C 46.796875 5.730469 45.839844 6.179688 44.605469 5.730469 C 44.4375 5.898438 44.210938 5.953125 43.875 5.953125 L 43.707031 5.730469 L 43.59375 5.503906 C 42.414062 5.503906 41.683594 5.394531 41.515625 5.222656 C 40.390625 5.222656 39.4375 5.335938 38.707031 5.503906 C 38.257812 5.335938 37.527344 5.222656 36.515625 5.222656 C 35.335938 5.222656 34.605469 5.167969 34.269531 5 L 30.167969 5 C 29.773438 5.167969 29.15625 5.222656 28.199219 5.113281 C 27.246094 5.054688 26.570312 5.222656 26.289062 5.730469 C 25.109375 5.394531 24.378906 5 24.210938 4.550781 L 23.707031 4.550781 C 23.089844 4.15625 22.414062 3.539062 21.742188 2.753906 C 20.953125 1.796875 20.390625 1.234375 20.109375 1.011719 C 20.109375 -0.394531 20.28125 -1.179688 20.617188 -1.347656 C 22.921875 -1.347656 25.109375 -1.683594 27.078125 -2.304688 C 28.257812 -1.964844 29.269531 -2.023438 30.167969 -2.527344 C 30.335938 -2.640625 30.390625 -2.863281 30.390625 -3.257812 L 30.390625 -2.976562 C 30.222656 -3.089844 30.109375 -3.371094 30.054688 -3.875 C 29.941406 -4.382812 29.828125 -4.664062 29.660156 -4.832031 C 29.097656 -4.492188 28.257812 -4.492188 27.078125 -4.832031 C 26.964844 -4.886719 26.683594 -4.71875 26.289062 -4.382812 C 25.730469 -4.382812 25.054688 -4.945312 24.210938 -6.011719 L 23.707031 -6.011719 C 22.863281 -6.796875 22.414062 -7.753906 22.414062 -8.820312 C 22.582031 -8.820312 22.863281 -8.988281 23.199219 -9.324219 C 26.964844 -9.605469 29.15625 -9.886719 29.886719 -10.28125 C 29.886719 -10.503906 30 -10.953125 30.167969 -11.574219 C 30.335938 -12.078125 30.449219 -12.359375 30.558594 -12.359375 C 30.617188 -12.359375 30.671875 -12.582031 30.671875 -13.03125 C 29.773438 -13.539062 28.820312 -13.59375 27.863281 -13.257812 C 27.582031 -13.480469 27.300781 -13.539062 27.078125 -13.480469 C 26.796875 -13.425781 26.402344 -13.3125 25.785156 -13.03125 C 25.222656 -12.753906 24.773438 -12.640625 24.492188 -12.582031 C 24.15625 -13.03125 23.03125 -13.820312 21.121094 -14.941406 C 21.121094 -15.222656 20.898438 -15.671875 20.449219 -16.234375 C 20.054688 -16.742188 19.773438 -17.078125 19.550781 -17.300781 C 19.550781 -18.03125 19.382812 -18.539062 19.042969 -18.707031 C 19.210938 -19.492188 19.382812 -20.503906 19.550781 -21.742188 C 19.660156 -22.527344 19.832031 -23.539062 20.109375 -24.832031 C 20.503906 -25.335938 20.839844 -26.011719 21.234375 -26.851562 L 22.132812 -28.59375 C 22.132812 -29.773438 22.246094 -30.449219 22.414062 -30.730469 C 22.976562 -31.347656 23.929688 -31.402344 25.28125 -30.953125 L 25.390625 -30.730469 C 25.390625 -30.671875 25.449219 -30.558594 25.503906 -30.503906 C 25.671875 -30.671875 26.234375 -30.503906 27.078125 -30 L 27.300781 -30.222656 C 27.695312 -29.941406 27.917969 -29.773438 28.089844 -29.773438 L 31.457031 -29.773438 C 31.796875 -30.109375 32.132812 -30.109375 32.46875 -29.773438 C 32.640625 -29.941406 33.144531 -30 34.042969 -30 C 34.660156 -29.828125 35.558594 -29.773438 36.851562 -29.773438 C 38.257812 -29.773438 39.15625 -29.71875 39.4375 -29.550781 L 41.007812 -28.820312 C 41.457031 -28.988281 42.132812 -28.875 43.085938 -28.480469 C 44.042969 -28.089844 44.546875 -27.917969 44.605469 -27.917969 C 46.007812 -27.46875 47.414062 -25.898438 48.761719 -23.199219 Z M 42.527344 -18.929688 L 43.761719 -18.929688 C 43.425781 -19.660156 43.085938 -20.449219 42.75 -21.289062 C 42.355469 -21.628906 40.839844 -22.359375 38.257812 -23.425781 C 33.761719 -23.707031 30.785156 -23.425781 29.269531 -22.582031 L 29.042969 -22.695312 L 28.761719 -22.808594 C 28.257812 -22.078125 27.582031 -20.671875 26.796875 -18.480469 C 26.964844 -18.480469 27.191406 -18.425781 27.414062 -18.3125 C 27.640625 -18.144531 27.863281 -18.144531 28.03125 -18.3125 C 28.3125 -18.59375 30.109375 -18.707031 33.425781 -18.707031 L 40.277344 -18.707031 L 40.503906 -18.820312 L 40.785156 -18.929688 C 41.007812 -18.929688 41.289062 -18.875 41.628906 -18.820312 C 42.078125 -18.761719 42.355469 -18.761719 42.527344 -18.929688 Z M 42.527344 -18.929688 "/></g></g></g></svg>